<?xml version="1.0" standalone="no"?>
<!DOCTYPE svg PUBLIC "-//W3C//DTD SVG 20010904//EN"
 "http://www.w3.org/TR/2001/REC-SVG-20010904/DTD/svg10.dtd">
<svg version="1.1" id="Capa_1" xmlns="http://www.w3.org/2000/svg" xmlns:xlink="http://www.w3.org/1999/xlink" x="0px" y="0px"
	 viewBox="0 0 67.774 67.774" style="enable-background:new 0 0 67.774 67.774;" xml:space="preserve">

<g transform="translate(0.000000,96.000000) scale(0.100000,-0.100000)"
fill="#000000" stroke="none">
<path d="M275 881 c-130 -60 -165 -225 -70 -329 l33 -36 -44 -28 c-54 -34
-100 -96 -119 -161 -22 -75 -20 -87 15 -87 21 0 30 5 30 16 0 77 88 189 166
212 55 16 107 15 149 -3 l35 -14 -21 -41 c-50 -96 -34 -197 45 -275 71 -71
146 -91 240 -63 55 16 138 99 154 154 28 94 8 169 -63 240 -76 76 -173 94
-267 50 -22 -11 -46 -15 -58 -11 -20 6 -19 8 14 45 72 80 74 197 3 277 -61 69
-161 92 -242 54z m155 -61 c45 -23 80 -80 80 -130 0 -76 -74 -150 -151 -150
-73 0 -149 76 -149 150 0 48 35 107 78 129 48 26 93 26 142 1z m310 -362 c132
-67 132 -249 0 -316 -56 -28 -104 -28 -160 0 -132 67 -132 249 0 316 24 12 60
22 80 22 20 0 56 -10 80 -22z"/>
<path d="M630 375 l0 -45 -45 0 c-43 0 -45 -1 -45 -30 0 -29 2 -30 45 -30 l45
0 0 -45 c0 -43 1 -45 30 -45 29 0 30 2 30 45 l0 45 45 0 c43 0 45 1 45 30 0
29 -2 30 -45 30 l-45 0 0 45 c0 43 -1 45 -30 45 -29 0 -30 -2 -30 -45z"/>
</g>
</svg>
